<svg xmlns="http://www.w3.org/2000/svg" viewBox="0 0 620 480" width="620" height="480">
  <defs>
    <filter id="glow" x="-30%" y="-30%" width="160%" height="160%">
      <feGaussianBlur stdDeviation="8" result="blur"/>
      <feMerge><feMergeNode in="blur"/><feMergeNode in="SourceGraphic"/></feMerge>
    </filter>
    <filter id="shadow" x="-10%" y="-10%" width="120%" height="140%">
      <feDropShadow dx="0" dy="2" stdDeviation="5" flood-color="#00000050"/>
    </filter>
    <filter id="shadow-lg" x="-10%" y="-10%" width="120%" height="150%">
      <feDropShadow dx="0" dy="4" stdDeviation="8" flood-color="#00000040"/>
    </filter>
    <marker id="arr-teal" markerWidth="8" markerHeight="8" refX="6" refY="3" orient="auto">
      <path d="M0,0 L0,6 L8,3 z" fill="#00C9A7"/>
    </marker>
    <marker id="arr-red" markerWidth="8" markerHeight="8" refX="6" refY="3" orient="auto">
      <path d="M0,0 L0,6 L8,3 z" fill="#FF453A"/>
    </marker>
    <marker id="arr-gray" markerWidth="8" markerHeight="8" refX="6" refY="3" orient="auto">
      <path d="M0,0 L0,6 L8,3 z" fill="#AEAEB2"/>
    </marker>
  </defs>

  <!-- Dark background for grounding -->
  <rect x="0" y="0" width="620" height="480" rx="18" fill="#141420" stroke="#2A2A3A" stroke-width="1"/>

  <!-- Agent A -->
  <rect x="24" y="72" width="120" height="56" rx="12" fill="#2C2C2E" filter="url(#shadow)"/>
  <circle cx="52" cy="100" r="13" fill="#3A3A3C"/>
  <!-- Agent icon -->
  <rect x="46" y="93" width="12" height="10" rx="3" fill="none" stroke="#C7C7CC" stroke-width="1.5"/>
  <circle cx="49.5" cy="97" r="1.2" fill="#C7C7CC"/>
  <circle cx="54.5" cy="97" r="1.2" fill="#C7C7CC"/>
  <line x1="52" y1="87" x2="52" y2="93" stroke="#C7C7CC" stroke-width="1.5" stroke-linecap="round"/>
  <text x="74" y="95" font-size="13" font-weight="700" fill="#F2F2F7" font-family="-apple-system,system-ui,sans-serif">Agent A</text>
  <text x="74" y="112" font-size="10" fill="#8E8E93" font-family="-apple-system,system-ui,sans-serif">llm.completion</text>

  <!-- Agent B -->
  <rect x="24" y="212" width="120" height="56" rx="12" fill="#2C2C2E" filter="url(#shadow)"/>
  <circle cx="52" cy="240" r="13" fill="#3A3A3C"/>
  <rect x="46" y="233" width="12" height="10" rx="3" fill="none" stroke="#C7C7CC" stroke-width="1.5"/>
  <circle cx="49.5" cy="237" r="1.2" fill="#C7C7CC"/>
  <circle cx="54.5" cy="237" r="1.2" fill="#C7C7CC"/>
  <line x1="52" y1="227" x2="52" y2="233" stroke="#C7C7CC" stroke-width="1.5" stroke-linecap="round"/>
  <text x="74" y="235" font-size="13" font-weight="700" fill="#F2F2F7" font-family="-apple-system,system-ui,sans-serif">Agent B</text>
  <text x="74" y="252" font-size="10" fill="#8E8E93" font-family="-apple-system,system-ui,sans-serif">tool.web_search</text>

  <!-- Agent C -->
  <rect x="24" y="352" width="120" height="56" rx="12" fill="#2C2C2E" filter="url(#shadow)"/>
  <circle cx="52" cy="380" r="13" fill="#3A3A3C"/>
  <rect x="46" y="373" width="12" height="10" rx="3" fill="none" stroke="#C7C7CC" stroke-width="1.5"/>
  <circle cx="49.5" cy="377" r="1.2" fill="#C7C7CC"/>
  <circle cx="54.5" cy="377" r="1.2" fill="#C7C7CC"/>
  <line x1="52" y1="367" x2="52" y2="373" stroke="#C7C7CC" stroke-width="1.5" stroke-linecap="round"/>
  <text x="74" y="375" font-size="13" font-weight="700" fill="#F2F2F7" font-family="-apple-system,system-ui,sans-serif">Agent C</text>
  <text x="74" y="392" font-size="10" fill="#8E8E93" font-family="-apple-system,system-ui,sans-serif">tool.db_delete</text>

  <!-- Curved flow lines to gate -->
  <path d="M146 100 C180 100, 200 170, 240 200" fill="none" stroke="#8E8E93" stroke-width="2" marker-end="url(#arr-gray)"/>
  <path d="M146 240 C190 240, 210 240, 240 240" fill="none" stroke="#8E8E93" stroke-width="2" marker-end="url(#arr-gray)"/>
  <path d="M146 380 C180 380, 200 310, 240 280" fill="none" stroke="#8E8E93" stroke-width="2" marker-end="url(#arr-gray)"/>

  <!-- Glow rings -->
  <circle cx="300" cy="240" r="86" fill="none" stroke="#00C9A7" stroke-width="1" opacity="0.30"/>
  <circle cx="300" cy="240" r="98" fill="none" stroke="#00C9A7" stroke-width="1" opacity="0.16"/>
  <circle cx="300" cy="240" r="110" fill="none" stroke="#00C9A7" stroke-width="0.5" opacity="0.08"/>

  <!-- Shield shape — enforcement gate -->
  <path d="M300 166 L348 184 L348 244 Q348 280 300 300 Q252 280 252 244 L252 184 Z"
        fill="#1A3A32" stroke="#00C9A7" stroke-width="2.5" filter="url(#shadow-lg)"/>

  <!-- Shield inner glow arc -->
  <path d="M300 174 L340 190 L340 242 Q340 272 300 290 Q260 272 260 242 L260 190 Z"
        fill="none" stroke="#00C9A7" stroke-width="1" opacity="0.4"/>

  <!-- Lock icon inside shield -->
  <rect x="290" y="218" width="20" height="16" rx="3" fill="#00C9A7"/>
  <path d="M295 218 L295 212 Q295 205 300 205 Q305 205 305 212 L305 218" fill="none" stroke="#00C9A7" stroke-width="2.5" stroke-linecap="round"/>
  <circle cx="300" cy="226" r="2.5" fill="#141420"/>
  <line x1="300" y1="228" x2="300" y2="231" stroke="#141420" stroke-width="2" stroke-linecap="round"/>

  <!-- CYCLES label -->
  <text x="300" y="330" text-anchor="middle" font-size="15" font-weight="800" fill="#00C9A7" font-family="-apple-system,system-ui,sans-serif" letter-spacing="0.15em">CYCLES</text>

  <!-- Budget meter — tighter integration below shield -->
  <rect x="232" y="346" width="136" height="32" rx="8" fill="#2C2C2E" filter="url(#shadow)"/>
  <text x="244" y="366" font-size="10" font-weight="700" fill="#C7C7CC" font-family="-apple-system,system-ui,sans-serif">BUDGET</text>
  <rect x="290" y="360" width="60" height="6" rx="3" fill="#3A3A3C"/>
  <rect x="290" y="360" width="45" height="6" rx="3" fill="#00C9A7"/>
  <text x="355" y="367" font-size="10" fill="#C7C7CC" font-family="-apple-system,system-ui,sans-serif" font-weight="600">75%</text>

  <!-- Arrow to ALLOWED -->
  <path d="M350 210 C380 195, 420 160, 452 145" fill="none" stroke="#00C9A7" stroke-width="2" marker-end="url(#arr-teal)"/>

  <!-- ALLOWED card -->
  <rect x="454" y="96" width="148" height="64" rx="12" fill="#1A3A32" filter="url(#shadow)"/>
  <rect x="454" y="96" width="4" height="64" rx="2" fill="#00C9A7"/>
  <text x="474" y="118" font-size="13" font-weight="800" fill="#00C9A7" font-family="-apple-system,system-ui,sans-serif">ALLOWED</text>
  <text x="474" y="135" font-size="11" fill="#F2F2F7" font-family="-apple-system,system-ui,sans-serif">Reserved: 50,000</text>
  <text x="474" y="150" font-size="11" fill="#D1D1D6" font-family="-apple-system,system-ui,sans-serif">&#x2713; proceed</text>

  <!-- Arrow to BLOCKED -->
  <path d="M350 272 C380 287, 420 320, 452 335" fill="none" stroke="#FF453A" stroke-width="2" marker-end="url(#arr-red)"/>

  <!-- BLOCKED card -->
  <rect x="454" y="320" width="148" height="64" rx="12" fill="#3A1A1A" filter="url(#shadow)"/>
  <rect x="454" y="320" width="4" height="64" rx="2" fill="#FF453A"/>
  <text x="474" y="342" font-size="13" font-weight="800" fill="#FF453A" font-family="-apple-system,system-ui,sans-serif">BLOCKED</text>
  <text x="474" y="359" font-size="11" fill="#F2F2F7" font-family="-apple-system,system-ui,sans-serif">Budget: $0.00</text>
  <text x="474" y="374" font-size="11" fill="#D1D1D6" font-family="-apple-system,system-ui,sans-serif">&#x2717; 409 exceeded</text>
</svg>
